<?xml version="1.0" encoding="UTF-8" standalone="no"?>
<!-- Created with Inkscape (http://www.inkscape.org/) -->

<svg
   xmlns:dc="http://purl.org/dc/elements/1.1/"
   xmlns:cc="http://creativecommons.org/ns#"
   xmlns:rdf="http://www.w3.org/1999/02/22-rdf-syntax-ns#"
   xmlns:svg="http://www.w3.org/2000/svg"
   xmlns="http://www.w3.org/2000/svg"
   xmlns:sodipodi="http://sodipodi.sourceforge.net/DTD/sodipodi-0.dtd"
   xmlns:inkscape="http://www.inkscape.org/namespaces/inkscape"
   width="315"
   height="87"
   id="svg3124"
   version="1.1"
   inkscape:version="0.48.4 r9939"
   sodipodi:docname="logo.svg">
  <defs
     id="defs3126" />
  <sodipodi:namedview
     id="base"
     pagecolor="#ffffff"
     bordercolor="#666666"
     borderopacity="1.0"
     inkscape:pageopacity="0.0"
     inkscape:pageshadow="2"
     inkscape:zoom="1.5494505"
     inkscape:cx="45.607843"
     inkscape:cy="44.95089"
     inkscape:current-layer="g3806"
     inkscape:document-units="px"
     showgrid="false"
     inkscape:window-width="1301"
     inkscape:window-height="744"
     inkscape:window-x="65"
     inkscape:window-y="24"
     inkscape:window-maximized="1" />
  <metadata
     id="metadata3129">
    <rdf:RDF>
      <cc:Work
         rdf:about="">
        <dc:format>image/svg+xml</dc:format>
        <dc:type
           rdf:resource="http://purl.org/dc/dcmitype/StillImage" />
        <dc:title />
      </cc:Work>
    </rdf:RDF>
  </metadata>
  <g
     inkscape:groupmode="layer"
     id="layer2"
     inkscape:label="Layer">
    <rect
       style="fill:#ffffff;fill-opacity:0.74314653;stroke:none"
       id="rect2992"
       width="315"
       height="87"
       x="0"
       y="0" />
  </g>
  <g
     id="layer1"
     inkscape:label="Layer 1"
     inkscape:groupmode="layer"
     transform="translate(0,-393)">
    <g
       id="g3806"
       transform="matrix(2.016,0,0,2.016,-136.13086,3668.9329)">
      <g
         style="font-size:40px;font-style:normal;font-variant:normal;font-weight:normal;font-stretch:normal;line-height:125%;letter-spacing:0px;word-spacing:0px;fill:#329998;fill-opacity:1;stroke:none;font-family:Droid Sans Ethiopic;-inkscape-font-specification:Droid Sans Ethiopic"
         id="text3957">
        <path
           d="m 91.259163,-1606.3677 -1.945313,0.6797 c -0.328139,-1.0468 -0.882826,-1.8437 -1.664062,-2.3906 -0.781262,-0.5625 -1.617199,-0.8437 -2.507813,-0.8438 -1.031259,10e-5 -1.914071,0.3282 -2.648437,0.9844 -0.718757,0.6563 -1.078132,1.5469 -1.078125,2.6719 -7e-6,0.5938 0.164055,1.1328 0.492187,1.6172 0.328118,0.4844 0.757805,0.8828 1.289063,1.1953 0.531241,0.3125 1.132803,0.6328 1.804687,0.9609 0.687489,0.3282 1.382801,0.6329 2.085938,0.9141 0.703112,0.2813 1.390611,0.6328 2.0625,1.0547 0.687485,0.4219 1.296859,0.875 1.828125,1.3593 0.531233,0.4844 0.96092,1.1094 1.289062,1.875 0.328107,0.7657 0.49217,1.6251 0.492188,2.5782 -1.8e-5,2.1719 -0.773455,3.9375 -2.320313,5.2968 -1.546889,1.3438 -3.343762,2.0157 -5.390625,2.0157 -0.890634,0 -1.742196,-0.1407 -2.554687,-0.4219 -0.812507,-0.2969 -1.562506,-0.7266 -2.25,-1.2891 -0.687505,-0.5625 -1.273442,-1.3125 -1.757813,-2.25 -0.484378,-0.9375 -0.796878,-2.0078 -0.9375,-3.2109 l 2.085938,-0.3047 c 0.218745,1.7813 0.835932,3.125 1.851562,4.0313 1.031243,0.9062 2.234366,1.3593 3.609375,1.3593 1.453113,0 2.742175,-0.4843 3.867188,-1.4531 1.124984,-0.9844 1.687484,-2.2422 1.6875,-3.7734 -1.6e-5,-0.8438 -0.210953,-1.586 -0.632813,-2.2266 -0.42189,-0.6562 -0.968764,-1.1875 -1.640625,-1.5937 -0.656263,-0.4063 -1.390637,-0.7891 -2.203125,-1.1485 -0.81251,-0.3593 -1.62501,-0.7265 -2.4375,-1.1015 -0.812508,-0.375 -1.554695,-0.7813 -2.226562,-1.2188 -0.656256,-0.4531 -1.195318,-1.039 -1.617188,-1.7578 -0.421879,-0.7344 -0.632817,-1.5703 -0.632812,-2.5078 -5e-6,-1.75 0.57812,-3.1406 1.734375,-4.1719 1.171867,-1.0312 2.554678,-1.5468 4.148437,-1.5469 1.312489,10e-5 2.53905,0.3985 3.679688,1.1953 1.14061,0.7813 1.953109,1.9219 2.4375,3.4219"
           style="font-size:48px;fill:#329998;font-family:Sawasdee;-inkscape-font-specification:Sawasdee"
           id="path2994" />
        <path
           d="m 98.641975,-1616.188 c -3e-6,-0.5156 0.179685,-0.9609 0.539063,-1.3359 0.374996,-0.375 0.828122,-0.5625 1.359372,-0.5625 0.51562,0 0.95312,0.1875 1.3125,0.5625 0.375,0.375 0.5625,0.8203 0.5625,1.3359 0,0.5313 -0.17969,0.9844 -0.53906,1.3594 -0.35938,0.3594 -0.80469,0.5391 -1.33594,0.539 -0.53125,10e-5 -0.984376,-0.1796 -1.359372,-0.539 -0.359378,-0.375 -0.539066,-0.8281 -0.539063,-1.3594 m 2.953125,29.3906 -2.109375,0 0,-23.7656 2.109375,0 0,23.7656"
           style="font-size:48px;fill:#329998;font-family:Sawasdee;-inkscape-font-specification:Sawasdee"
           id="path2996" />
      </g>
      <g
         style="font-size:40px;font-style:normal;font-variant:normal;font-weight:normal;font-stretch:normal;line-height:125%;letter-spacing:0px;word-spacing:0px;fill:#000000;fill-opacity:1;stroke:none;font-family:Droid Sans Ethiopic;-inkscape-font-specification:Droid Sans Ethiopic"
         id="text3961">
        <path
           d="m 203.52824,-1606.3677 -1.94531,0.6797 c -0.32814,-1.0468 -0.88282,-1.8437 -1.66406,-2.3906 -0.78126,-0.5625 -1.6172,-0.8437 -2.50781,-0.8438 -1.03126,10e-5 -1.91407,0.3282 -2.64844,0.9844 -0.71876,0.6563 -1.07813,1.5469 -1.07813,2.6719 0,0.5938 0.16406,1.1328 0.49219,1.6172 0.32812,0.4844 0.75781,0.8828 1.28906,1.1953 0.53124,0.3125 1.13281,0.6328 1.80469,0.9609 0.68749,0.3282 1.3828,0.6329 2.08594,0.9141 0.70311,0.2813 1.39061,0.6328 2.0625,1.0547 0.68748,0.4219 1.29686,0.875 1.82812,1.3593 0.53124,0.4844 0.96092,1.1094 1.28907,1.875 0.3281,0.7657 0.49217,1.6251 0.49218,2.5782 -1e-5,2.1719 -0.77345,3.9375 -2.32031,5.2968 -1.54689,1.3438 -3.34376,2.0157 -5.39062,2.0157 -0.89064,0 -1.7422,-0.1407 -2.55469,-0.4219 -0.81251,-0.2969 -1.56251,-0.7266 -2.25,-1.2891 -0.68751,-0.5625 -1.27344,-1.3125 -1.75781,-2.25 -0.48438,-0.9375 -0.79688,-2.0078 -0.9375,-3.2109 l 2.08593,-0.3047 c 0.21875,1.7813 0.83594,3.125 1.85157,4.0313 1.03124,0.9062 2.23436,1.3593 3.60937,1.3593 1.45311,0 2.74218,-0.4843 3.86719,-1.4531 1.12498,-0.9844 1.68748,-2.2422 1.6875,-3.7734 -2e-5,-0.8438 -0.21095,-1.586 -0.63281,-2.2266 -0.42189,-0.6562 -0.96877,-1.1875 -1.64063,-1.5937 -0.65626,-0.4063 -1.39064,-0.7891 -2.20312,-1.1485 -0.81251,-0.3593 -1.62501,-0.7265 -2.4375,-1.1015 -0.81251,-0.375 -1.5547,-0.7813 -2.22657,-1.2188 -0.65625,-0.4531 -1.19531,-1.039 -1.61718,-1.7578 -0.42188,-0.7344 -0.63282,-1.5703 -0.63282,-2.5078 0,-1.75 0.57812,-3.1406 1.73438,-4.1719 1.17187,-1.0312 2.55468,-1.5468 4.14844,-1.5469 1.31248,10e-5 2.53905,0.3985 3.67968,1.1953 1.14061,0.7813 1.95311,1.9219 2.4375,3.4219"
           style="font-size:48px;fill:#000000;font-family:Sawasdee;-inkscape-font-specification:Sawasdee"
           id="path3004" />
        <path
           d="m 210.91106,-1616.188 c -1e-5,-0.5156 0.17968,-0.9609 0.53906,-1.3359 0.375,-0.375 0.82812,-0.5625 1.35937,-0.5625 0.51562,0 0.95312,0.1875 1.3125,0.5625 0.375,0.375 0.5625,0.8203 0.5625,1.3359 0,0.5313 -0.17969,0.9844 -0.53906,1.3594 -0.35938,0.3594 -0.80469,0.5391 -1.33594,0.539 -0.53125,10e-5 -0.98437,-0.1796 -1.35937,-0.539 -0.35938,-0.375 -0.53907,-0.8281 -0.53906,-1.3594 m 2.95312,29.3906 -2.10937,0 0,-23.7656 2.10937,0 0,23.7656"
           style="font-size:48px;fill:#000000;font-family:Sawasdee;-inkscape-font-specification:Sawasdee"
           id="path3006" />
      </g>
      <g
         style="font-size:40px;font-style:normal;font-variant:normal;font-weight:normal;font-stretch:normal;line-height:125%;letter-spacing:0px;word-spacing:0px;fill:#90acaf;fill-opacity:1;stroke:none;font-family:Droid Sans Ethiopic;-inkscape-font-specification:Droid Sans Ethiopic"
         id="text3965">
        <path
           d="m 139.95514,-1610.5161 2.10937,0 0,14.6953 c 0,2.0469 0.61718,3.7813 1.85157,5.2031 1.23436,1.4219 2.74217,2.1328 4.52343,2.1328 1.79686,0 3.34374,-0.7109 4.64063,-2.1328 1.31248,-1.4375 1.96873,-3.1718 1.96875,-5.2031 l 0,-14.6953 2.10937,0 0,14.6953 c -2e-5,2.5781 -0.83595,4.7969 -2.50781,6.6562 -1.67189,1.8438 -3.71095,2.7657 -6.11719,2.7657 -2.39063,0 -4.42188,-0.9219 -6.09375,-2.7657 -1.65625,-1.8593 -2.48437,-4.0781 -2.48437,-6.6562 l 0,-14.6953"
           style="font-size:48px;fill:#90acaf;font-family:Sawasdee;-inkscape-font-specification:Sawasdee"
           id="path2999" />
        <path
           d="m 166.25201,-1600.6489 17.27344,0 c -0.43752,-2.3594 -1.46877,-4.3047 -3.09375,-5.836 -1.62502,-1.5312 -3.48439,-2.2968 -5.57812,-2.2968 -2.07814,0 -3.9297,0.7656 -5.55469,2.2968 -1.60938,1.5313 -2.62501,3.4766 -3.04688,5.836 m 19.57032,1.9922 -19.89844,0 c -1e-5,2.7968 0.87499,5.1718 2.625,7.125 1.74999,1.9531 3.8203,2.9297 6.21094,2.9296 1.57811,10e-5 3.12498,-0.4218 4.64062,-1.2656 1.51561,-0.8437 2.67186,-1.9765 3.46875,-3.3984 l 1.85156,1.0547 c -0.95314,1.7031 -2.35939,3.1015 -4.21875,4.1953 -1.85939,1.0781 -3.77345,1.6172 -5.74218,1.6172 -1.98439,0 -3.81251,-0.5547 -5.48438,-1.6641 -1.65625,-1.1094 -2.96094,-2.6015 -3.91406,-4.4766 -0.9375,-1.8906 -1.40625,-3.9296 -1.40625,-6.1171 0,-2.1719 0.47656,-4.1953 1.42969,-6.0704 0.96874,-1.8749 2.28905,-3.3671 3.96093,-4.4765 1.68749,-1.125 3.52343,-1.6875 5.50782,-1.6875 1.87498,0 3.61717,0.5078 5.22656,1.5234 1.62498,1 2.93748,2.3516 3.9375,4.0547 0.99998,1.7032 1.58591,3.5703 1.75781,5.6016 l 0.0469,1.0547"
           style="font-size:48px;fill:#90acaf;font-family:Sawasdee;-inkscape-font-specification:Sawasdee"
           id="path3001" />
      </g>
      <path
         transform="matrix(1.0203938,0,0,1.0913684,144.79964,883.25886)"
         d="m -12.374369,-2274.2527 c 0,5.6487 -5.0314,10.2278 -11.237947,10.2278 -6.206547,0 -11.237948,-4.5791 -11.237948,-10.2278 0,-5.6486 5.031401,-10.2278 11.237948,-10.2278 6.206547,0 11.237947,4.5792 11.237947,10.2278 z"
         sodipodi:ry="10.227795"
         sodipodi:rx="11.237947"
         sodipodi:cy="-2274.2527"
         sodipodi:cx="-23.612316"
         id="path3994"
         style="fill:none;stroke:#90acaf;stroke-width:1.85542369;stroke-miterlimit:4;stroke-opacity:1;stroke-dasharray:none"
         sodipodi:type="arc" />
      <path
         inkscape:connector-curvature="0"
         id="path4766"
         d="m 125.95959,-1595.9133 7.14286,8.9286"
         style="fill:#329998;fill-opacity:1;stroke:#90acaf;stroke-width:1.70000005;stroke-linecap:butt;stroke-linejoin:miter;stroke-miterlimit:4;stroke-opacity:1;stroke-dasharray:none" />
    </g>
  </g>
</svg>
